<?xml version="1.0" standalone="no"?>
<!DOCTYPE svg PUBLIC "-//W3C//DTD SVG 20010904//EN"
 "http://www.w3.org/TR/2001/REC-SVG-20010904/DTD/svg10.dtd">
<svg version="1.0" xmlns="http://www.w3.org/2000/svg"
 width="890.000000pt" height="890.000000pt" viewBox="0 0 890.000000 890.000000"
 preserveAspectRatio="xMidYMid meet">
<metadata>
Created by potrace 1.14, written by Peter Selinger 2001-2017
</metadata>
<g transform="translate(0.000000,890.000000) scale(0.100000,-0.100000)"
fill="#000000" stroke="none">
<path d="M4387 7687 c-15 -7 -199 -152 -410 -324 -2572 -2100 -2472 -2016
-2475 -2059 -2 -33 2 -44 30 -71 18 -17 211 -177 429 -355 218 -177 396 -327
396 -333 0 -5 -176 -153 -391 -328 -215 -175 -408 -334 -428 -353 -46 -43 -51
-89 -16 -127 13 -14 279 -234 593 -489 314 -255 818 -666 1120 -913 303 -247
585 -478 628 -512 65 -53 84 -63 117 -63 30 0 43 6 59 27 l21 26 -2 1036 c-3
1015 -3 1037 -23 1073 -22 39 -55 68 -535 459 -313 255 -847 691 -998 814 -78
64 -94 94 -71 131 21 33 1972 1620 2008 1632 37 13 67 6 111 -27 140 -103
1964 -1598 1972 -1617 8 -18 7 -29 -5 -47 -8 -13 -107 -97 -219 -188 -111 -90
-300 -243 -418 -339 -323 -264 -920 -753 -940 -770 -10 -8 -26 -31 -36 -50
-18 -33 -19 -84 -22 -1073 l-2 -1038 24 -24 c44 -44 83 -35 178 42 46 37 328
268 628 512 663 542 819 669 1305 1064 209 170 390 320 403 334 32 35 29 84
-7 120 -16 15 -209 174 -429 353 -221 179 -400 329 -399 334 2 5 194 164 427
355 l425 346 3 41 c3 37 -1 45 -35 77 -88 82 -2817 2306 -2847 2321 -40 19
-129 20 -169 3z m-1247 -3774 c161 -131 303 -251 314 -266 20 -27 21 -42 24
-344 2 -272 1 -319 -13 -339 -8 -13 -20 -24 -25 -24 -5 0 -98 73 -207 161
-109 89 -334 272 -501 408 -205 166 -305 254 -309 270 -3 14 0 34 8 47 17 28
385 324 403 324 7 0 144 -107 306 -237z m3183 72 c107 -85 197 -165 200 -176
3 -12 1 -31 -5 -43 -9 -19 -937 -782 -992 -816 -20 -12 -27 -12 -40 -1 -14 12
-16 53 -16 340 0 293 2 329 18 353 15 24 552 470 598 497 11 6 24 9 31 6 7 -2
100 -74 206 -160z"/>
<path d="M4385 6181 c-22 -11 -267 -205 -545 -433 -489 -401 -505 -414 -508
-451 -2 -20 3 -46 10 -56 23 -33 321 -273 357 -288 43 -18 84 -11 130 24 20
15 170 137 334 270 164 134 302 243 306 243 4 0 150 -117 324 -260 174 -142
330 -266 346 -275 41 -20 79 -19 119 5 43 26 312 247 334 274 10 12 18 37 18
57 0 30 -7 43 -38 70 -117 106 -989 807 -1020 821 -49 23 -117 22 -167 -1z"/>
</g>
</svg>
